<mxfile host="app.diagrams.net" modified="2021-09-15T12:38:06.995Z" agent="5.0 (Windows NT 10.0; Win64; x64) AppleWebKit/537.36 (KHTML, like Gecko) Chrome/93.0.4577.63 Safari/537.36 Edg/93.0.961.47" etag="MZ2pmr670h4uVuU4pQyC" version="15.2.5" type="github">
  <diagram id="DfqF4grti_05bretxwBp" name="第 1 页">
    <mxGraphModel dx="1244" dy="832" grid="1" gridSize="10" guides="1" tooltips="1" connect="1" arrows="1" fold="1" page="1" pageScale="1" pageWidth="3300" pageHeight="4681" math="0" shadow="0">
      <root>
        <mxCell id="0" />
        <mxCell id="1" parent="0" />
        <mxCell id="EjoFfU5QmYsOKlTv9Tg1-23" value="" style="rounded=1;whiteSpace=wrap;html=1;shadow=0;sketch=0;fontFamily=JetBrains Mono;fontSize=18;fillColor=#e3c800;strokeColor=#B09500;fontColor=#000000;" vertex="1" parent="1">
          <mxGeometry x="810" y="297.5" width="180" height="242.5" as="geometry" />
        </mxCell>
        <mxCell id="EjoFfU5QmYsOKlTv9Tg1-22" value="" style="rounded=1;whiteSpace=wrap;html=1;shadow=0;sketch=0;fontFamily=JetBrains Mono;fontSize=18;fillColor=#647687;strokeColor=#314354;fontColor=#ffffff;" vertex="1" parent="1">
          <mxGeometry x="620" y="297.5" width="180" height="242.5" as="geometry" />
        </mxCell>
        <mxCell id="EjoFfU5QmYsOKlTv9Tg1-20" value="" style="rounded=1;whiteSpace=wrap;html=1;shadow=0;sketch=0;fontFamily=JetBrains Mono;fontSize=18;fillColor=#a0522d;strokeColor=#6D1F00;fontColor=#ffffff;" vertex="1" parent="1">
          <mxGeometry x="290" y="297.5" width="320" height="245" as="geometry" />
        </mxCell>
        <mxCell id="EjoFfU5QmYsOKlTv9Tg1-5" style="rounded=0;orthogonalLoop=1;jettySize=auto;html=1;exitX=1;exitY=0.5;exitDx=0;exitDy=0;entryX=0;entryY=0.5;entryDx=0;entryDy=0;fontFamily=JetBrains Mono;fontSize=18;strokeWidth=2;shadow=1;sketch=0;" edge="1" parent="1" source="EjoFfU5QmYsOKlTv9Tg1-1" target="EjoFfU5QmYsOKlTv9Tg1-4">
          <mxGeometry relative="1" as="geometry" />
        </mxCell>
        <mxCell id="EjoFfU5QmYsOKlTv9Tg1-1" value="publisher" style="rounded=1;whiteSpace=wrap;html=1;fontFamily=JetBrains Mono;fontSize=18;fontStyle=1;sketch=0;fillColor=#ffe6cc;strokeColor=#d79b00;shadow=1;" vertex="1" parent="1">
          <mxGeometry x="310" y="310" width="120" height="60" as="geometry" />
        </mxCell>
        <mxCell id="EjoFfU5QmYsOKlTv9Tg1-2" value="publisher" style="rounded=1;whiteSpace=wrap;html=1;fontFamily=JetBrains Mono;fontSize=18;fontStyle=1;sketch=0;fillColor=#ffe6cc;strokeColor=#d79b00;shadow=1;" vertex="1" parent="1">
          <mxGeometry x="310" y="390" width="120" height="60" as="geometry" />
        </mxCell>
        <mxCell id="EjoFfU5QmYsOKlTv9Tg1-7" style="edgeStyle=none;rounded=0;orthogonalLoop=1;jettySize=auto;html=1;exitX=1;exitY=0.5;exitDx=0;exitDy=0;entryX=0;entryY=0.5;entryDx=0;entryDy=0;fontFamily=JetBrains Mono;fontSize=18;strokeWidth=2;shadow=1;sketch=0;" edge="1" parent="1" source="EjoFfU5QmYsOKlTv9Tg1-3" target="EjoFfU5QmYsOKlTv9Tg1-4">
          <mxGeometry relative="1" as="geometry" />
        </mxCell>
        <mxCell id="EjoFfU5QmYsOKlTv9Tg1-3" value="publisher" style="rounded=1;whiteSpace=wrap;html=1;fontFamily=JetBrains Mono;fontSize=18;fontStyle=1;sketch=0;fillColor=#ffe6cc;strokeColor=#d79b00;shadow=1;" vertex="1" parent="1">
          <mxGeometry x="310" y="470" width="120" height="60" as="geometry" />
        </mxCell>
        <mxCell id="EjoFfU5QmYsOKlTv9Tg1-8" style="edgeStyle=none;rounded=0;orthogonalLoop=1;jettySize=auto;html=1;exitX=1;exitY=0.5;exitDx=0;exitDy=0;fontFamily=JetBrains Mono;fontSize=18;entryX=0.5;entryY=0;entryDx=0;entryDy=0;entryPerimeter=0;strokeWidth=2;shadow=1;sketch=0;" edge="1" parent="1" source="EjoFfU5QmYsOKlTv9Tg1-4" target="EjoFfU5QmYsOKlTv9Tg1-10">
          <mxGeometry relative="1" as="geometry">
            <mxPoint x="650" y="340" as="targetPoint" />
          </mxGeometry>
        </mxCell>
        <mxCell id="EjoFfU5QmYsOKlTv9Tg1-14" style="edgeStyle=none;rounded=0;orthogonalLoop=1;jettySize=auto;html=1;exitX=1;exitY=0.7;exitDx=0;exitDy=0;entryX=0.5;entryY=0;entryDx=0;entryDy=0;entryPerimeter=0;fontFamily=JetBrains Mono;fontSize=18;strokeWidth=2;shadow=1;sketch=0;" edge="1" parent="1" source="EjoFfU5QmYsOKlTv9Tg1-4" target="EjoFfU5QmYsOKlTv9Tg1-12">
          <mxGeometry relative="1" as="geometry" />
        </mxCell>
        <mxCell id="EjoFfU5QmYsOKlTv9Tg1-4" value="" style="shape=datastore;whiteSpace=wrap;html=1;rounded=1;shadow=1;glass=0;labelBackgroundColor=#ffffff;sketch=0;disableMultiStroke=0;disableMultiStrokeFill=0;fontFamily=JetBrains Mono;fontSize=14;fillColor=#e1d5e7;verticalAlign=middle;strokeColor=#9673a6;" vertex="1" parent="1">
          <mxGeometry x="490" y="395" width="110" height="50" as="geometry" />
        </mxCell>
        <mxCell id="EjoFfU5QmYsOKlTv9Tg1-17" style="edgeStyle=none;rounded=0;orthogonalLoop=1;jettySize=auto;html=1;exitX=0.5;exitY=1;exitDx=0;exitDy=0;exitPerimeter=0;entryX=0;entryY=0.5;entryDx=0;entryDy=0;fontFamily=JetBrains Mono;fontSize=18;strokeWidth=2;shadow=1;sketch=0;" edge="1" parent="1" source="EjoFfU5QmYsOKlTv9Tg1-10" target="EjoFfU5QmYsOKlTv9Tg1-15">
          <mxGeometry relative="1" as="geometry" />
        </mxCell>
        <mxCell id="EjoFfU5QmYsOKlTv9Tg1-10" value="" style="shape=cylinder3;whiteSpace=wrap;html=1;boundedLbl=1;backgroundOutline=1;size=15;sketch=0;fontFamily=JetBrains Mono;fontSize=18;rotation=-90;fillColor=#d5e8d4;strokeColor=#82b366;shadow=1;" vertex="1" parent="1">
          <mxGeometry x="690" y="305" width="60" height="140" as="geometry" />
        </mxCell>
        <mxCell id="EjoFfU5QmYsOKlTv9Tg1-11" value="&lt;b&gt;queue&lt;/b&gt;" style="text;html=1;align=center;verticalAlign=middle;resizable=0;points=[];autosize=1;strokeColor=none;fillColor=none;fontSize=18;fontFamily=JetBrains Mono;shadow=1;sketch=0;" vertex="1" parent="1">
          <mxGeometry x="690" y="365" width="70" height="30" as="geometry" />
        </mxCell>
        <mxCell id="EjoFfU5QmYsOKlTv9Tg1-18" style="edgeStyle=none;rounded=0;orthogonalLoop=1;jettySize=auto;html=1;exitX=0.5;exitY=1;exitDx=0;exitDy=0;exitPerimeter=0;fontFamily=JetBrains Mono;fontSize=18;strokeWidth=2;shadow=1;sketch=0;" edge="1" parent="1" source="EjoFfU5QmYsOKlTv9Tg1-12" target="EjoFfU5QmYsOKlTv9Tg1-16">
          <mxGeometry relative="1" as="geometry" />
        </mxCell>
        <mxCell id="EjoFfU5QmYsOKlTv9Tg1-12" value="" style="shape=cylinder3;whiteSpace=wrap;html=1;boundedLbl=1;backgroundOutline=1;size=15;sketch=0;fontFamily=JetBrains Mono;fontSize=18;rotation=-90;fillColor=#d5e8d4;strokeColor=#82b366;shadow=1;" vertex="1" parent="1">
          <mxGeometry x="690" y="395" width="60" height="140" as="geometry" />
        </mxCell>
        <mxCell id="EjoFfU5QmYsOKlTv9Tg1-13" value="&lt;b&gt;queue&lt;/b&gt;" style="text;html=1;align=center;verticalAlign=middle;resizable=0;points=[];autosize=1;strokeColor=none;fillColor=none;fontSize=18;fontFamily=JetBrains Mono;shadow=1;sketch=0;" vertex="1" parent="1">
          <mxGeometry x="690" y="455" width="70" height="30" as="geometry" />
        </mxCell>
        <mxCell id="EjoFfU5QmYsOKlTv9Tg1-15" value="customer" style="rounded=1;whiteSpace=wrap;html=1;fontFamily=JetBrains Mono;fontSize=18;fontStyle=1;sketch=0;fillColor=#f8cecc;strokeColor=#b85450;shadow=1;" vertex="1" parent="1">
          <mxGeometry x="840" y="345" width="120" height="60" as="geometry" />
        </mxCell>
        <mxCell id="EjoFfU5QmYsOKlTv9Tg1-16" value="customer" style="rounded=1;whiteSpace=wrap;html=1;fontFamily=JetBrains Mono;fontSize=18;fontStyle=1;sketch=0;fillColor=#f8cecc;strokeColor=#b85450;shadow=1;" vertex="1" parent="1">
          <mxGeometry x="840" y="435" width="120" height="60" as="geometry" />
        </mxCell>
        <mxCell id="EjoFfU5QmYsOKlTv9Tg1-19" value="&lt;b&gt;exchange&lt;/b&gt;" style="text;html=1;align=center;verticalAlign=middle;resizable=0;points=[];autosize=1;strokeColor=none;fillColor=none;fontSize=18;fontFamily=JetBrains Mono;" vertex="1" parent="1">
          <mxGeometry x="498" y="413" width="100" height="30" as="geometry" />
        </mxCell>
        <mxCell id="EjoFfU5QmYsOKlTv9Tg1-24" value="1" style="ellipse;whiteSpace=wrap;html=1;aspect=fixed;strokeWidth=2;fontFamily=Tahoma;spacingBottom=4;spacingRight=2;strokeColor=#B20000;shadow=0;sketch=0;fontSize=18;fillColor=#e51400;fontColor=#ffffff;" vertex="1" parent="1">
          <mxGeometry x="560" y="305" width="35" height="35" as="geometry" />
        </mxCell>
        <mxCell id="EjoFfU5QmYsOKlTv9Tg1-26" value="2" style="ellipse;whiteSpace=wrap;html=1;aspect=fixed;strokeWidth=2;fontFamily=Tahoma;spacingBottom=4;spacingRight=2;strokeColor=#B20000;shadow=0;sketch=0;fontSize=18;fillColor=#e51400;fontColor=#ffffff;" vertex="1" parent="1">
          <mxGeometry x="750" y="305" width="35" height="35" as="geometry" />
        </mxCell>
        <mxCell id="EjoFfU5QmYsOKlTv9Tg1-27" value="3" style="ellipse;whiteSpace=wrap;html=1;aspect=fixed;strokeWidth=2;fontFamily=Tahoma;spacingBottom=4;spacingRight=2;strokeColor=#B20000;shadow=0;sketch=0;fontSize=18;fillColor=#e51400;fontColor=#ffffff;" vertex="1" parent="1">
          <mxGeometry x="940" y="303" width="37" height="37" as="geometry" />
        </mxCell>
      </root>
    </mxGraphModel>
  </diagram>
</mxfile>
